# xmcd CD database file
#
# Track frame offsets:
#	187
#	13352
#	27525
#	38682
#	51877
#	63680
#	75807
#	94817
#	107730
#	114890
#
# Disc length: 1938 seconds
#
# Revision: 0
# Processed by: cddbd v1.4PL0 Copyright (c) Steve Scherf et al.
# Submitted via: CDex 1.50beta8
#
DISCID=7907900a
DTITLE=Lee Konitz and Miles Davis - EZZ-THETIC
DYEAR=1952
DGENRE=Jazz
TTITLE0=ODJENAR
TTITLE1=HI BECK
TTITLE2=YESTERDAYS
TTITLE3=EZZ-THETIC
TTITLE4=INDIANA SUMMER
TTITLE5=DUET FOR SAXOPHONE and GUITAR
TTITLE6=EDGING OUT
TTITLE7=NOCTURNE
TTITLE8=COMPOSITON FOR FOUR PIECE
TTITLE9=A NIGHT IN TUNISIA
EXTD=YEAR: 1952
EXTT0=
EXTT1=
EXTT2=
EXTT3=
EXTT4=
EXTT5=
EXTT6=
EXTT7=
EXTT8=
EXTT9=
PLAYORDER=
